<?xml version="1.0" standalone="no"?>
<!DOCTYPE svg PUBLIC "-//W3C//DTD SVG 20010904//EN"
 "http://www.w3.org/TR/2001/REC-SVG-20010904/DTD/svg10.dtd">
<svg version="1.0" xmlns="http://www.w3.org/2000/svg"
 width="238.000000pt" height="238.000000pt" viewBox="0 0 238.000000 238.000000"
 preserveAspectRatio="xMidYMid meet">

<g transform="translate(0.000000,238.000000) scale(0.100000,-0.100000)"
fill="#000" stroke="none">
<path d="M1884 2132 c-21 -16 -61 -56 -87 -90 -27 -33 -71 -79 -98 -102 -27
-22 -60 -61 -75 -85 -14 -25 -31 -45 -38 -45 -7 0 -30 18 -51 41 -51 52 -123
89 -175 89 -54 0 -117 -33 -142 -76 -11 -18 -21 -34 -21 -34 -1 0 -24 11 -51
25 -85 43 -170 27 -224 -43 -15 -18 -34 -43 -43 -55 -16 -21 -16 -21 -60 17
-30 26 -51 36 -66 33 -27 -5 -28 4 -7 66 19 55 13 92 -17 108 -49 26 -86 -12
-109 -116 -19 -83 -26 -87 -52 -25 -43 105 -62 135 -83 135 -17 0 -20 -6 -17
-39 2 -22 9 -56 16 -77 15 -42 9 -49 -40 -49 -32 0 -80 -25 -88 -45 -9 -24 28
-53 79 -61 56 -8 107 -47 103 -78 -3 -20 -8 -21 -156 -21 -212 0 -211 1 -132
-250 22 -71 65 -220 96 -330 57 -209 95 -318 121 -347 10 -11 31 -18 55 -18
21 0 38 -2 38 -5 0 -3 -11 -22 -24 -43 -43 -69 -50 -130 -21 -200 44 -104 167
-152 264 -103 46 24 108 91 117 127 9 35 -2 119 -20 155 -8 16 -11 30 -8 32 4
2 99 0 212 -5 113 -4 254 -5 314 -2 60 4 107 2 104 -2 -37 -76 -42 -95 -43
-150 0 -110 68 -176 181 -176 29 0 66 8 83 16 39 21 97 98 111 149 10 33 7 45
-17 99 -17 38 -23 63 -16 65 38 13 100 52 115 73 9 14 29 68 43 120 15 52 67
230 116 395 49 165 89 313 89 328 0 36 -29 47 -128 47 -42 0 -82 4 -89 8 -9 6
12 67 77 226 50 120 90 225 90 233 0 30 -30 69 -68 91 -56 31 -109 29 -158 -6z
m86 -117 c10 -12 4 -33 -28 -112 -44 -106 -44 -107 -110 -76 -60 28 -54 53 30
148 51 57 84 69 108 40z m-557 -191 c36 -18 107 -83 107 -97 0 -5 -12 -36 -26
-67 l-26 -58 -111 4 -112 5 2 51 c3 65 37 134 77 159 38 23 48 23 89 3z m384
-49 c73 -41 75 -51 42 -141 l-21 -57 -52 7 c-28 3 -77 6 -108 6 -48 0 -58 3
-58 17 0 26 103 203 119 203 8 0 43 -16 78 -35z m-678 -11 c21 -15 23 -21 17
-76 -11 -92 -5 -88 -117 -88 -96 0 -99 1 -99 23 1 38 36 102 71 130 40 31 92
35 128 11z m-355 -58 c39 -37 50 -89 20 -100 -24 -9 -124 -7 -124 2 0 19 29
104 40 117 18 21 24 19 64 -19z m926 -230 c168 -5 309 -12 314 -16 7 -7 -64
-260 -86 -302 -8 -16 -26 -18 -155 -18 l-146 0 6 125 6 125 -39 0 c-53 0 -94
-16 -86 -35 6 -18 -13 -184 -24 -205 -7 -12 -28 -14 -118 -12 l-110 3 -6 37
c-3 20 -6 78 -6 129 0 50 -3 94 -7 96 -5 2 -32 1 -62 -1 l-53 -4 2 -102 c2
-55 2 -108 1 -117 -1 -13 -21 -17 -113 -22 -62 -4 -116 -3 -121 2 -4 4 -17 61
-27 125 -11 64 -22 121 -25 126 -6 10 -59 3 -89 -13 -17 -8 -18 -16 -11 -96 4
-47 8 -102 9 -121 l1 -35 -145 2 -145 2 -46 134 c-26 73 -52 144 -59 156 -6
13 -8 27 -3 32 4 4 53 10 108 11 185 5 927 2 1235 -6z m-577 -455 c4 -4 6 -68
5 -142 l-3 -134 -107 -3 -108 -3 0 59 c0 32 -3 101 -7 152 l-6 93 109 -7 c60
-4 112 -10 117 -15z m-376 3 l29 -6 12 -110 c6 -64 18 -120 27 -134 8 -13 15
-26 15 -30 0 -8 -218 1 -240 10 -8 4 -35 63 -60 132 -25 70 -46 130 -48 135
-4 10 218 12 265 3z m738 -4 c5 -8 -1 -72 -23 -235 l-7 -50 -103 -3 -102 -3 0
74 c0 41 -3 108 -6 150 l-7 77 121 0 c67 0 123 -4 127 -10z m275 0 c58 0 111
-4 118 -9 11 -7 7 -28 -18 -112 -53 -172 -53 -174 -78 -173 -12 0 -63 1 -113
2 l-92 2 7 58 c3 31 9 93 12 137 7 103 9 109 37 101 12 -3 69 -6 127 -6z
m-976 -440 c41 -45 47 -89 20 -141 -47 -92 -187 -57 -201 49 -10 71 41 130
113 131 25 1 40 -8 68 -39z m905 5 c17 -8 38 -34 51 -59 21 -44 21 -46 4 -81
-31 -67 -108 -94 -156 -55 -59 46 -54 128 11 183 37 31 51 33 90 12z"/>
<path d="M658 525 c-9 -19 -8 -29 6 -50 19 -29 46 -32 69 -7 26 28 21 61 -9
72 -39 15 -53 12 -66 -15z"/>
<path d="M1599 489 c-9 -18 -7 -25 9 -42 20 -19 22 -19 46 -3 28 18 33 35 14
54 -19 19 -56 14 -69 -9z"/>
</g>
</svg>
