<?xml version="1.0" standalone="no"?>
<!DOCTYPE svg PUBLIC "-//W3C//DTD SVG 20010904//EN"
 "http://www.w3.org/TR/2001/REC-SVG-20010904/DTD/svg10.dtd">
<svg version="1.0" xmlns="http://www.w3.org/2000/svg"
 width="465.000000pt" height="338.000000pt" viewBox="0 0 465.000000 338.000000"
 preserveAspectRatio="xMidYMid meet">

<g transform="translate(0.000000,338.000000) scale(0.100000,-0.100000)"
fill="#000000" stroke="none">
<path d="M3020 3206 c-19 -13 -60 -54 -89 -90 -30 -36 -76 -84 -103 -107 -26
-22 -59 -60 -74 -84 -14 -25 -31 -45 -38 -45 -7 0 -30 18 -51 41 -51 52 -123
89 -175 89 -54 0 -117 -33 -142 -76 -11 -18 -21 -34 -21 -34 -1 0 -24 11 -51
25 -85 43 -170 27 -224 -43 -15 -18 -35 -44 -44 -55 l-16 -22 -29 26 c-37 35
-71 52 -89 45 -18 -7 -18 9 2 67 19 55 13 92 -17 108 -50 27 -79 -6 -114 -133
-8 -32 -20 -58 -25 -58 -4 0 -14 17 -21 38 -22 69 -69 152 -86 152 -13 0 -15
-8 -9 -57 12 -113 13 -108 -14 -111 -128 -16 -141 -90 -21 -112 61 -11 103
-43 99 -75 -3 -19 -10 -20 -156 -20 -216 0 -213 7 -118 -296 30 -96 70 -235
90 -309 41 -159 81 -274 108 -312 16 -23 27 -28 59 -28 21 0 39 -2 39 -5 0 -3
-12 -24 -27 -48 -49 -77 -40 -190 20 -255 56 -61 154 -79 226 -43 46 24 108
91 117 127 9 35 -2 119 -20 155 -8 16 -11 30 -8 32 4 2 99 0 212 -5 113 -4
254 -5 314 -1 62 3 107 2 104 -3 -35 -72 -42 -96 -42 -150 -2 -109 65 -175
179 -177 30 0 63 6 83 16 40 22 98 99 112 150 10 33 8 45 -14 94 -15 30 -26
59 -26 63 0 4 20 15 45 25 62 23 89 63 120 175 43 153 113 394 161 550 25 79
44 158 42 174 -4 37 -23 44 -135 45 -45 1 -84 5 -87 9 -3 5 35 106 84 226 50
119 90 227 90 239 -1 49 -79 107 -145 107 -26 0 -53 -8 -75 -24z m80 -121 c10
-12 5 -32 -25 -107 -21 -51 -41 -97 -45 -101 -8 -9 -51 8 -92 36 -26 17 -27
20 -14 45 8 15 38 53 66 85 53 59 86 72 110 42z m-552 -194 c40 -21 102 -77
102 -93 0 -6 -12 -37 -26 -68 l-26 -58 -111 4 -112 5 2 51 c3 65 37 134 77
159 39 24 48 24 94 0z m378 -46 c35 -20 65 -39 68 -43 2 -4 -6 -38 -18 -77
l-22 -70 -37 1 c-168 2 -187 4 -187 21 0 9 20 50 43 92 24 42 47 84 50 94 9
25 33 21 103 -18z m-670 -16 c14 -15 15 -28 8 -86 l-9 -68 -102 -3 c-101 -3
-103 -2 -103 20 1 30 32 99 56 120 53 47 116 54 150 17z m-362 -53 c39 -37 50
-89 20 -100 -24 -9 -124 -7 -124 2 0 19 29 104 40 117 18 21 24 19 64 -19z
m1031 -234 l210 -7 -2 -30 c-2 -16 -22 -88 -45 -160 l-43 -130 -149 -3 -149
-3 6 126 6 125 -39 0 c-47 0 -93 -16 -85 -30 9 -15 -17 -209 -29 -218 -6 -4
-59 -6 -117 -4 l-107 3 -6 37 c-3 20 -6 78 -6 129 0 50 -3 94 -7 96 -5 2 -32
1 -62 -1 l-54 -4 6 -107 c3 -59 2 -112 -1 -118 -10 -14 -229 -26 -237 -13 -3
5 -15 63 -26 127 -11 64 -22 120 -25 125 -5 8 -60 0 -86 -14 -22 -11 -23 -69
-4 -175 9 -51 10 -73 2 -76 -6 -2 -74 -2 -150 -1 l-139 3 -54 148 c-30 81 -55
155 -56 163 -2 12 17 16 103 20 145 7 1088 2 1345 -8z m-736 -438 l62 -7 -3
-141 -3 -141 -107 -3 -108 -3 0 59 c0 32 -3 100 -6 150 l-7 92 55 0 c30 0 83
-3 117 -6z m-320 -10 c29 -6 31 -10 31 -48 1 -58 27 -197 39 -209 26 -26 7
-30 -101 -24 -62 3 -120 8 -128 11 -8 4 -35 63 -60 132 -25 70 -46 130 -48
135 -4 10 219 12 267 3z m737 -41 c-4 -27 -11 -91 -16 -143 -6 -52 -14 -98
-19 -103 -4 -4 -51 -6 -104 -5 l-96 3 -5 148 -5 147 126 0 126 0 -7 -47z m383
31 c16 -3 22 -10 18 -22 -3 -9 -20 -70 -39 -135 -19 -65 -39 -121 -44 -126 -5
-4 -58 -6 -118 -3 l-109 4 7 57 c3 31 9 92 12 136 3 44 7 85 9 90 3 10 216 9
264 -1z m-1085 -434 c28 -31 36 -48 36 -78 0 -52 -19 -84 -63 -105 -46 -23
-85 -16 -121 22 -73 76 -23 198 80 200 25 1 40 -8 68 -39z m905 6 c15 -8 38
-35 52 -60 l24 -46 -20 -36 c-37 -69 -108 -93 -158 -54 -58 46 -52 129 12 183
37 31 51 33 90 13z"/>
<path d="M1788 1595 c-9 -19 -8 -29 6 -50 19 -29 46 -32 69 -7 26 28 21 61 -9
72 -39 15 -53 12 -66 -15z"/>
<path d="M2729 1559 c-9 -18 -7 -25 9 -41 16 -16 24 -18 40 -9 11 6 23 18 26
27 16 41 -54 62 -75 23z"/>
<path d="M2935 1358 c-66 -51 -74 -138 -18 -187 39 -34 102 -25 149 20 29 28
34 40 34 80 0 68 -35 109 -95 109 -28 0 -51 -7 -70 -22z"/>
<path d="M2430 1333 c-51 -6 -60 -24 -60 -125 l0 -88 -34 0 c-55 0 -67 -21
-64 -104 l3 -71 56 2 55 2 0 -207 c-1 -229 5 -259 57 -319 43 -49 82 -63 172
-63 85 0 137 17 155 50 14 26 5 106 -13 117 -7 4 -40 6 -74 4 -112 -5 -123 16
-123 250 l0 156 93 7 c50 4 95 10 100 15 8 8 -6 127 -16 138 -4 3 -46 9 -94
12 l-88 6 -6 103 c-7 128 -6 128 -119 115z"/>
<path d="M984 1117 c-124 -42 -193 -101 -233 -206 -31 -77 -37 -154 -17 -231
24 -93 53 -144 116 -204 98 -94 200 -128 312 -107 91 18 134 40 216 111 78 67
111 118 132 208 36 156 -64 346 -222 418 -88 40 -203 44 -304 11z m238 -169
c61 -33 100 -94 106 -163 14 -172 -110 -278 -273 -234 -58 16 -99 51 -129 111
-63 127 -9 267 120 308 45 15 130 4 176 -22z"/>
<path d="M1794 1122 c-128 -45 -191 -148 -165 -265 21 -94 91 -144 268 -193
47 -13 91 -28 99 -35 19 -15 18 -74 -1 -93 -40 -39 -152 -24 -248 35 -26 16
-52 29 -59 29 -13 0 -118 -79 -118 -89 0 -15 67 -70 120 -100 70 -38 180 -65
242 -57 96 11 199 76 245 154 22 36 25 52 21 106 -7 114 -71 171 -242 212
-125 31 -163 55 -152 97 17 68 149 75 225 12 16 -14 34 -25 40 -25 15 0 131
81 131 91 0 18 -105 99 -148 114 -74 26 -196 29 -258 7z"/>
<path d="M3444 1104 c-75 -15 -109 -32 -151 -76 -44 -45 -63 -96 -63 -165 0
-122 80 -181 327 -243 79 -20 99 -74 41 -110 -63 -38 -172 -15 -265 56 l-33
25 -55 -42 c-32 -24 -55 -49 -55 -60 0 -23 87 -90 165 -126 51 -23 74 -27 150
-27 82 -1 96 2 157 32 228 112 202 341 -46 413 -140 41 -169 52 -187 70 -25
25 -24 45 6 74 41 42 130 29 215 -30 45 -31 48 -30 125 38 47 42 45 52 -31
110 -79 60 -192 84 -300 61z"/>
<path d="M2931 1090 c-18 -4 -37 -14 -42 -22 -9 -13 -16 -445 -11 -598 5 -115
8 -120 86 -120 47 0 67 4 77 17 11 13 14 85 14 372 l0 356 -45 2 c-25 1 -60
-2 -79 -7z"/>
</g>
</svg>
